<svg xmlns="http://www.w3.org/2000/svg" viewBox="0 0 192 80"><path d="M38.6 53h3.8V29.9H51V27H30v2.9h8.6V53z"/><path fill-rule="evenodd" d="M109 0v38H81C80 16.8 62.3 0 40.5 0 18.1 0 0 17.9 0 40s18.1 40 40.5 40C62.2 80 79.9 63.1 81 42h28v38h83V0h-83zM40.5 75.8c-20 0-36.2-16-36.2-35.8S20.5 4.2 40.5 4.2s36.2 16 36.2 35.8-16.2 35.8-36.2 35.8zm147.2 0h-74.5V4.2h74.5v71.6z" clip-rule="evenodd"/><path d="M141.3 53H158v-2.8l-12.3.1v-.1c8.6-5.6 12.3-10.1 12.3-14.8 0-5-3.4-8.4-8.4-8.4s-8.6 3.4-8.6 8.2c0 .8.1 1.6.3 2.3l3.3-.2c-.2-.7-.3-1.3-.3-1.9 0-3.2 2.2-5.4 5.2-5.4 3.1 0 5.1 2.3 5.1 5.6 0 3.9-3.9 8.3-13.4 15V53z"/></svg>